<svg width="24" height="25" viewBox="0 0 24 25" fill="none" xmlns="http://www.w3.org/2000/svg">
<g opacity="0.7">
<rect y="0.59375" width="24" height="24" rx="2" fill="url(#paint0_linear_0_1167)"/>
<g clip-path="url(#clip0_0_1167)">
<path d="M17.793 9.75878C17.6634 9.11423 17.3404 8.52449 16.8672 8.06812C16.3939 7.61175 15.7928 7.31042 15.144 7.20428C14.6565 7.12657 14.1577 7.16263 13.6864 7.30965C13.2152 7.45667 12.7843 7.71066 12.4275 8.05178C12.3113 8.15979 12.1586 8.21984 12 8.21984C11.8414 8.21984 11.6886 8.15979 11.5725 8.05178C10.9801 7.47876 10.1896 7.15608 9.36541 7.15082C8.54122 7.14556 7.7467 7.45812 7.14701 8.02353C6.54731 8.58894 6.18858 9.36371 6.14537 10.1868C6.10216 11.0099 6.3778 11.8179 6.915 12.443L11.352 17.7305C11.4314 17.825 11.5305 17.901 11.6424 17.9531C11.7543 18.0052 11.8762 18.0322 11.9996 18.0322C12.123 18.0322 12.245 18.0052 12.3568 17.9531C12.4687 17.901 12.5678 17.825 12.6472 17.7305L17.0842 12.443C17.398 12.0788 17.6249 11.6481 17.7476 11.1833C17.8704 10.7185 17.8859 10.2319 17.793 9.76028V9.75878Z" fill="currentColor"/>
</g>
</g>
<defs>
<linearGradient id="paint0_linear_0_1167" x1="0" y1="0.59375" x2="24" y2="24.5938" gradientUnits="userSpaceOnUse">
<stop stop-color="#450AF5"/>
<stop offset="1" stop-color="#C4EFD9"/>
</linearGradient>
<clipPath id="clip0_0_1167">
<rect width="12" height="12" fill="white" transform="translate(6 6.59375)"/>
</clipPath>
</defs>
</svg>
