<svg width="20" height="22" viewBox="0 0 20 22" fill="none" xmlns="http://www.w3.org/2000/svg">
<path d="M11.5 1.10871C11.0439 0.845406 10.5266 0.706787 10 0.706787C9.47339 0.706787 8.95606 0.845406 8.5 1.10871L1 5.43871C0.695969 5.61424 0.443498 5.86671 0.267962 6.17074C0.0924258 6.47477 8.91844e-06 6.81965 0 7.17071V20.5937C0 20.8589 0.105357 21.1133 0.292893 21.3008C0.48043 21.4884 0.734784 21.5937 1 21.5937H7C7.26522 21.5937 7.51957 21.4884 7.70711 21.3008C7.89464 21.1133 8 20.8589 8 20.5937V14.5937H12V20.5937C12 20.8589 12.1054 21.1133 12.2929 21.3008C12.4804 21.4884 12.7348 21.5937 13 21.5937H19C19.2652 21.5937 19.5196 21.4884 19.7071 21.3008C19.8946 21.1133 20 20.8589 20 20.5937V7.17071C20 6.81965 19.9076 6.47477 19.732 6.17074C19.5565 5.86671 19.304 5.61424 19 5.43871L11.5 1.10871Z" fill="white"/>
</svg>
