<svg width="20" height="21" viewBox="0 0 20 21" fill="none" xmlns="http://www.w3.org/2000/svg">
<path d="M12.5 0.72775C12.652 0.639982 12.8245 0.593776 13 0.593776C13.1755 0.593776 13.348 0.639982 13.5 0.72775L19.5 4.19175C19.652 4.27952 19.7782 4.40575 19.866 4.55776C19.9538 4.70978 20 4.88222 20 5.05775V19.5938C20 19.859 19.8946 20.1133 19.7071 20.3009C19.5196 20.4884 19.2652 20.5938 19 20.5938H13C12.7348 20.5938 12.4804 20.4884 12.2929 20.3009C12.1054 20.1133 12 19.859 12 19.5938V1.59375C12 1.41822 12.0462 1.24578 12.134 1.09376C12.2217 0.94175 12.348 0.815516 12.5 0.72775ZM14 3.32575V18.5938H18V5.63475L14 3.32575ZM1 20.5938C0.734784 20.5938 0.48043 20.4884 0.292893 20.3009C0.105357 20.1133 0 19.859 0 19.5938V1.59375C0 1.32853 0.105357 1.07418 0.292893 0.886643C0.48043 0.699107 0.734784 0.59375 1 0.59375C1.26522 0.59375 1.51957 0.699107 1.70711 0.886643C1.89464 1.07418 2 1.32853 2 1.59375V19.5938C2 19.859 1.89464 20.1133 1.70711 20.3009C1.51957 20.4884 1.26522 20.5938 1 20.5938ZM7 20.5938C6.73478 20.5938 6.48043 20.4884 6.29289 20.3009C6.10536 20.1133 6 19.859 6 19.5938V1.59375C6 1.32853 6.10536 1.07418 6.29289 0.886643C6.48043 0.699107 6.73478 0.59375 7 0.59375C7.26522 0.59375 7.51957 0.699107 7.70711 0.886643C7.89464 1.07418 8 1.32853 8 1.59375V19.5938C8 19.859 7.89464 20.1133 7.70711 20.3009C7.51957 20.4884 7.26522 20.5938 7 20.5938Z" fill="currentColor" fill-opacity="0.698"/>
</svg>
