<svg width="24" height="25" viewBox="0 0 24 25" fill="none" xmlns="http://www.w3.org/2000/svg">
<rect y="0.59375" width="24" height="24" rx="2" fill="currentColor"/>
<g clip-path="url(#clip0_0_1160)">
<path d="M17.4375 12.5938C17.4375 12.7429 17.3782 12.886 17.2727 12.9915C17.1673 13.097 17.0242 13.1562 16.875 13.1562H12.5625V17.4688C12.5625 17.6179 12.5032 17.761 12.3977 17.8665C12.2923 17.972 12.1492 18.0312 12 18.0312C11.8508 18.0312 11.7077 17.972 11.6023 17.8665C11.4968 17.761 11.4375 17.6179 11.4375 17.4688V13.1562H7.125C6.97582 13.1562 6.83274 13.097 6.72725 12.9915C6.62176 12.886 6.5625 12.7429 6.5625 12.5938C6.5625 12.4446 6.62176 12.3015 6.72725 12.196C6.83274 12.0905 6.97582 12.0312 7.125 12.0312H11.4375V7.71875C11.4375 7.56957 11.4968 7.42649 11.6023 7.321C11.7077 7.21551 11.8508 7.15625 12 7.15625C12.1492 7.15625 12.2923 7.21551 12.3977 7.321C12.5032 7.42649 12.5625 7.56957 12.5625 7.71875V12.0312H16.875C17.0242 12.0312 17.1673 12.0905 17.2727 12.196C17.3782 12.3015 17.4375 12.4446 17.4375 12.5938Z" fill="black"/>
</g>
<defs>
<clipPath id="clip0_0_1160">
<rect width="12" height="12" fill="white" transform="translate(6 6.59375)"/>
</clipPath>
</defs>
</svg>
